<svg preserveAspectRatio="xMidYMid meet" viewBox="0 -0.003 341.747 151.093" xmlns="http://www.w3.org/2000/svg">
    <g>
        <path d="M228.1 0c71.52 27.67 52.13 90.05 40 118.76h68.59C341.43 100.73 367.82-.64 228.1 0" fill="#0d324e"/>
        <path d="M54.88 90.27h9.86c11.46 0 16.82-4.07 16.82-14.5V58.24c0-10.43-5.36-14.5-16.82-14.5H.68v74.77h17.11V90.27h16.53l30.14 28.24h24.92L54.89 90.27Zm-37.1-12.75V56.66h39.14c5.36 0 7.82 1.01 7.82 5.93v9c0 4.93-2.46 5.93-7.82 5.93z" fill="#0d324e"/>
        <path fill="#0d324e" d="M94.3 43.75h86.88l-7.07 13.03H111.7v19.71h51.16l-7.67 13.64h-43.5v28.39H94.3z"/>
        <path d="M215.42 43.75h-16.85l-42.31 74.8h17.39l8.71-16.39h47.38l9 16.39h19.57l-42.88-74.8Zm-25.64 44.91 16.68-30.42 16.07 30.42z" fill="#0d324e"/>
        <path d="M333.86 125.26.64 127.51c-.29.02-.53.24-.57.53 0 0-.07 1.32-.07 1.37 0 .14.04.29.14.39.1.11.24.17.39.18 0 0 314.68 4.43 316.27 4.43-.5 1.36-5.93 15.93-5.93 15.93-.03.05-.04.12-.04.18 0 .19.1.38.25.5.09.04.19.06.28.07.16 0 .31-.07.43-.18l22.46-24.67c.14-.17.18-.4.11-.61a.56.56 0 0 0-.5-.36Z" fill="#0d324e"/>
    </g>
</svg>